# xmcd CD database file
#
# Track frame offsets:
#	150
#	14513
#	27610
#	43175
#	56928
#	77760
#	92853
#	105708
#	122508
#	137050
#	156553
#	170813
#
# Disc length: 2504 seconds
#
# Revision: 0
# Processed by: cddbd v1.5.1PL0 Copyright (c) Steve Scherf et al.
# Submitted via: CDex 1.51
#
DISCID=ae09c60c
DTITLE=Yoshitaka Akimitsu Trio - Something to Remember you By
DYEAR=1900
DGENRE=Jazz
TTITLE0=Something to Remember you By
TTITLE1=To each his own
TTITLE2=laughing on the outside
TTITLE3=Mam´selle-Count every Star
TTITLE4=Gipsy Medley
TTITLE5=It´s been a long long time
TTITLE6=Some Sunday morning
TTITLE7=It´s magic
TTITLE8=Harbour lights
TTITLE9=Anytime medley
TTITLE10=Be my Love
TTITLE11=Waltz Medley
EXTD=
EXTT0=
EXTT1=
EXTT2=
EXTT3=
EXTT4=
EXTT5=
EXTT6=
EXTT7=
EXTT8=
EXTT9=
EXTT10=
EXTT11=
PLAYORDER=
